<svg width="34" height="34" viewBox="0 0 34 34" fill="none" xmlns="http://www.w3.org/2000/svg">
<ellipse cx="17" cy="17.0006" rx="17" ry="16.983" fill="white"/>
<mask id="path-2-inside-1_6597_9045" fill="white">
<path fill-rule="evenodd" clip-rule="evenodd" d="M23.9029 9.67688C22.9617 8.76035 21.8436 8.03407 20.613 7.53985C19.3823 7.04563 18.0634 6.79322 16.7321 6.79716C11.1451 6.79716 6.59702 11.2021 6.59475 16.6174C6.59228 18.3417 7.05924 20.0359 7.94809 21.5275L6.50977 26.6145L11.8836 25.249C13.3711 26.0334 15.0363 26.4439 16.728 26.4433H16.7321C22.3186 26.4433 26.8663 22.038 26.869 16.6231C26.8724 15.3317 26.6119 14.0525 26.1027 12.86C25.5935 11.6675 24.8457 10.5855 23.9029 9.67688ZM16.7321 24.7858H16.7285C15.2203 24.7863 13.7396 24.3934 12.4403 23.6481L12.1326 23.4712L8.94379 24.2816L9.79497 21.2696L9.59456 20.9599C8.75128 19.6604 8.30449 18.1545 8.3062 16.6174C8.3062 12.1173 12.0877 8.45598 16.7353 8.45598C18.9648 8.45211 21.1046 9.3104 22.6841 10.8421C24.2635 12.3738 25.1532 14.4534 25.1576 16.6236C25.1558 21.1241 21.3761 24.7858 16.7321 24.7858ZM21.3534 18.673C21.1003 18.55 19.8537 17.9564 19.6229 17.8745C19.392 17.7927 19.2216 17.7516 19.053 17.9975C18.8844 18.2435 18.3986 18.7938 18.2509 18.9596C18.1032 19.1255 17.9555 19.1437 17.7024 19.0207C17.4492 18.8977 16.6326 18.6389 15.6651 17.8029C14.9121 17.1522 14.404 16.3489 14.2563 16.1034C14.1086 15.8579 14.2404 15.7247 14.3672 15.6026C14.4812 15.4925 14.6203 15.316 14.7471 15.1727C14.8739 15.0293 14.9161 14.9267 15.0002 14.763C15.0843 14.5994 15.0425 14.456 14.9793 14.3335C14.9161 14.211 14.4094 13.0029 14.1986 12.5115C13.9927 12.0328 13.7841 12.0979 13.6287 12.0903C13.481 12.0833 13.3106 12.0815 13.1429 12.0815C13.0147 12.0847 12.8886 12.1137 12.7724 12.1665C12.6562 12.2193 12.5524 12.2949 12.4676 12.3885C12.2354 12.6344 11.5809 13.229 11.5809 14.4357C11.5809 15.6424 12.4898 16.8102 12.6153 16.9739C12.7407 17.1376 14.4013 19.6161 16.9421 20.6791C17.4139 20.8757 17.8959 21.0482 18.3863 21.1957C18.993 21.3824 19.5451 21.3563 19.9814 21.293C20.4681 21.2227 21.4811 20.6994 21.6915 20.1261C21.9019 19.5528 21.9024 19.0618 21.8392 18.9596C21.776 18.8574 21.607 18.7955 21.3534 18.673Z"/>
</mask>
<path fill-rule="evenodd" clip-rule="evenodd" d="M23.9029 9.67688C22.9617 8.76035 21.8436 8.03407 20.613 7.53985C19.3823 7.04563 18.0634 6.79322 16.7321 6.79716C11.1451 6.79716 6.59702 11.2021 6.59475 16.6174C6.59228 18.3417 7.05924 20.0359 7.94809 21.5275L6.50977 26.6145L11.8836 25.249C13.3711 26.0334 15.0363 26.4439 16.728 26.4433H16.7321C22.3186 26.4433 26.8663 22.038 26.869 16.6231C26.8724 15.3317 26.6119 14.0525 26.1027 12.86C25.5935 11.6675 24.8457 10.5855 23.9029 9.67688ZM16.7321 24.7858H16.7285C15.2203 24.7863 13.7396 24.3934 12.4403 23.6481L12.1326 23.4712L8.94379 24.2816L9.79497 21.2696L9.59456 20.9599C8.75128 19.6604 8.30449 18.1545 8.3062 16.6174C8.3062 12.1173 12.0877 8.45598 16.7353 8.45598C18.9648 8.45211 21.1046 9.3104 22.6841 10.8421C24.2635 12.3738 25.1532 14.4534 25.1576 16.6236C25.1558 21.1241 21.3761 24.7858 16.7321 24.7858ZM21.3534 18.673C21.1003 18.55 19.8537 17.9564 19.6229 17.8745C19.392 17.7927 19.2216 17.7516 19.053 17.9975C18.8844 18.2435 18.3986 18.7938 18.2509 18.9596C18.1032 19.1255 17.9555 19.1437 17.7024 19.0207C17.4492 18.8977 16.6326 18.6389 15.6651 17.8029C14.9121 17.1522 14.404 16.3489 14.2563 16.1034C14.1086 15.8579 14.2404 15.7247 14.3672 15.6026C14.4812 15.4925 14.6203 15.316 14.7471 15.1727C14.8739 15.0293 14.9161 14.9267 15.0002 14.763C15.0843 14.5994 15.0425 14.456 14.9793 14.3335C14.9161 14.211 14.4094 13.0029 14.1986 12.5115C13.9927 12.0328 13.7841 12.0979 13.6287 12.0903C13.481 12.0833 13.3106 12.0815 13.1429 12.0815C13.0147 12.0847 12.8886 12.1137 12.7724 12.1665C12.6562 12.2193 12.5524 12.2949 12.4676 12.3885C12.2354 12.6344 11.5809 13.229 11.5809 14.4357C11.5809 15.6424 12.4898 16.8102 12.6153 16.9739C12.7407 17.1376 14.4013 19.6161 16.9421 20.6791C17.4139 20.8757 17.8959 21.0482 18.3863 21.1957C18.993 21.3824 19.5451 21.3563 19.9814 21.293C20.4681 21.2227 21.4811 20.6994 21.6915 20.1261C21.9019 19.5528 21.9024 19.0618 21.8392 18.9596C21.776 18.8574 21.607 18.7955 21.3534 18.673Z" fill="#0F4DC4"/>
<path d="M23.9029 9.67688L-34.0044 69.139L-33.8485 69.2909L-33.6918 69.4419L23.9029 9.67688ZM16.7321 6.79716V89.7972H16.855L16.9778 89.7968L16.7321 6.79716ZM6.59475 16.6174L89.5947 16.7363L89.5947 16.6943L89.5947 16.6522L6.59475 16.6174ZM7.94809 21.5275L87.817 44.1099L97.5377 9.72992L79.2481 -20.9615L7.94809 21.5275ZM6.50977 26.6145L-73.3591 4.03216L-112.509 142.496L26.9511 107.058L6.50977 26.6145ZM11.8836 25.249L50.5984 -48.1688L22.3709 -63.0537L-8.55776 -55.1945L11.8836 25.249ZM16.728 26.4433V-56.5567H16.714L16.7 -56.5567L16.728 26.4433ZM26.869 16.6231L-56.1307 16.4056L-56.1309 16.4935L-56.131 16.5813L26.869 16.6231ZM16.7285 24.7858V-58.2141H16.7166H16.7046L16.7285 24.7858ZM12.4403 23.6481L-28.939 95.5978L-28.8983 95.6212L-28.8577 95.6445L12.4403 23.6481ZM12.1326 23.4712L53.512 -48.4785L24.3236 -65.2652L-8.31043 -56.9718L12.1326 23.4712ZM8.94379 24.2816L-70.9281 1.70984L-110.054 140.161L29.3869 104.725L8.94379 24.2816ZM9.79497 21.2696L89.6668 43.8413L99.8803 7.70034L79.474 -23.8285L9.79497 21.2696ZM9.59456 20.9599L79.2736 -24.1381L79.247 -24.1792L79.2203 -24.2203L9.59456 20.9599ZM8.3062 16.6174L91.3061 16.7095L91.3062 16.6634V16.6174H8.3062ZM16.7353 8.45598V91.456H16.8074L16.8796 91.4559L16.7353 8.45598ZM25.1576 16.6236L108.158 16.6571L108.158 16.5574L108.157 16.4578L25.1576 16.6236ZM21.3534 18.673L-14.9159 93.3291L-14.8368 93.3675L-14.7577 93.4058L21.3534 18.673ZM15.6651 17.8029L-38.6028 80.6042L-38.6025 80.6044L15.6651 17.8029ZM14.3672 15.6026L71.938 75.3906L71.98 75.3502L72.0219 75.3097L14.3672 15.6026ZM14.1986 12.5115L90.4741 -20.2154L90.4595 -20.2494L90.4449 -20.2834L14.1986 12.5115ZM13.6287 12.0903L17.6399 -70.8127L17.6207 -70.8136L17.6015 -70.8145L13.6287 12.0903ZM13.1429 12.0815V-70.9185H12.0916L11.0406 -70.8919L13.1429 12.0815ZM12.4676 12.3885L72.8171 69.3703L73.3962 68.7571L73.9626 68.1322L12.4676 12.3885ZM16.9421 20.6791L-15.0913 97.2484L-15.0422 97.2689L-14.9931 97.2894L16.9421 20.6791ZM18.3863 21.1957L42.7953 -58.134L42.5478 -58.2101L42.2998 -58.2847L18.3863 21.1957ZM19.9814 21.293L8.11057 -60.8537L8.09103 -60.8509L8.0715 -60.848L19.9814 21.293ZM81.8101 -49.7853C73.0333 -58.3325 62.7282 -64.9899 51.5441 -69.4814L-10.3181 84.5611C-19.0409 81.0581 -27.1099 75.8532 -34.0044 69.139L81.8101 -49.7853ZM51.5441 -69.4814C40.3636 -73.9714 28.4557 -76.2379 16.4864 -76.2025L16.9778 89.7968C7.67113 89.8243 -1.5989 88.0626 -10.3181 84.5611L51.5441 -69.4814ZM16.7321 -76.2028C-32.2033 -76.2028 -76.3827 -37.0977 -76.4052 16.5826L89.5947 16.6522C89.5768 59.5019 54.4935 89.7972 16.7321 89.7972V-76.2028ZM-76.4052 16.4984C-76.4293 33.3313 -71.8626 49.7348 -63.3519 64.0165L79.2481 -20.9615C85.9811 -9.663 89.6138 3.35211 89.5947 16.7363L-76.4052 16.4984ZM-71.9208 -1.05489L-73.3591 4.03216L86.3786 49.1969L87.817 44.1099L-71.9208 -1.05489ZM26.9511 107.058L32.325 105.692L-8.55776 -55.1945L-13.9316 -53.8289L26.9511 107.058ZM-26.8311 98.6668C-13.3262 105.788 1.64764 109.448 16.7561 109.443L16.7 -56.5567C28.4249 -56.5606 40.0684 -53.7214 50.5984 -48.1688L-26.8311 98.6668ZM16.728 109.443H16.7321V-56.5567H16.728V109.443ZM16.7321 109.443C65.6785 109.443 109.842 70.3283 109.869 16.6649L-56.131 16.5813C-56.1094 -26.2524 -21.0412 -56.5567 16.7321 -56.5567V109.443ZM109.869 16.8406C109.902 4.22494 107.354 -8.21523 102.435 -19.7351L-50.2292 45.4552C-54.13 36.3203 -56.157 26.4385 -56.1307 16.4056L109.869 16.8406ZM102.435 -19.7351C97.5177 -31.2496 90.3614 -41.5461 81.4975 -50.0882L-33.6918 69.4419C-40.6701 62.7171 -46.3308 54.5846 -50.2292 45.4552L102.435 -19.7351ZM16.7321 -58.2141H16.7285V107.786H16.7321V-58.2141ZM16.7046 -58.2141C29.5908 -58.2178 42.371 -54.8686 53.7383 -48.3483L-28.8577 95.6445C-14.8918 103.655 0.849846 107.79 16.7523 107.786L16.7046 -58.2141ZM53.8196 -48.3015L53.512 -48.4785L-29.2467 95.4208L-28.939 95.5978L53.8196 -48.3015ZM-8.31043 -56.9718L-11.4993 -56.1615L29.3869 104.725L32.5757 103.914L-8.31043 -56.9718ZM88.8157 46.8533L89.6668 43.8413L-70.0769 -1.30213L-70.9281 1.70984L88.8157 46.8533ZM79.474 -23.8285L79.2736 -24.1381L-60.0844 66.058L-59.884 66.3677L79.474 -23.8285ZM79.2203 -24.2203C87.0498 -12.1545 91.3224 2.04538 91.3061 16.7095L-74.6937 16.5253C-74.7134 34.2635 -69.5473 51.4753 -60.0312 66.1402L79.2203 -24.2203ZM91.3062 16.6174C91.3062 60.4618 55.3817 91.456 16.7353 91.456V-74.544C-31.2064 -74.544 -74.6938 -36.2271 -74.6938 16.6174H91.3062ZM16.8796 91.4559C-2.18989 91.489 -20.9255 84.1698 -35.098 70.426L80.4661 -48.7418C63.1348 -65.549 40.1195 -74.5848 16.591 -74.5439L16.8796 91.4559ZM-35.098 70.426C-49.3465 56.6083 -57.8012 37.3631 -57.8423 16.7894L108.157 16.4578C108.108 -8.45627 97.8735 -31.8608 80.4661 -48.7418L-35.098 70.426ZM-57.8424 16.59C-57.8247 -27.1662 -21.9819 -58.2141 16.7321 -58.2141V107.786C64.7341 107.786 108.136 69.4143 108.158 16.6571L-57.8424 16.59ZM57.6227 -55.9832C57.0443 -56.2641 56.2876 -56.6237 55.6368 -56.928C55.2988 -57.086 54.719 -57.3558 54.0585 -57.6535C53.7421 -57.7961 53.168 -58.0531 52.4661 -58.3542C52.2873 -58.4308 50.1149 -59.3771 47.354 -60.3558L-8.10824 96.1049C-9.75336 95.5217 -11.016 95.0138 -11.5233 94.808C-12.1584 94.5503 -12.6623 94.3364 -12.9599 94.2088C-13.5485 93.9563 -13.9853 93.7601 -14.1484 93.6866C-14.3525 93.5946 -14.4972 93.528 -14.5583 93.4998C-14.6275 93.4679 -14.6688 93.4486 -14.6772 93.4447C-14.6888 93.4393 -14.6696 93.4483 -14.6396 93.4625C-14.5561 93.5022 -14.6717 93.4477 -14.9159 93.3291L57.6227 -55.9832ZM47.354 -60.3558C46.9293 -60.5063 42.9253 -61.9676 37.7248 -63.1408C32.2583 -64.374 22.428 -66.0366 10.1951 -64.6844C-20.4165 -61.3005 -39.856 -42.863 -49.406 -28.9319L87.5119 64.927C83.4025 70.9217 76.5352 79.2308 65.865 86.4894C54.4638 94.2452 41.5592 98.8597 28.4341 100.311C16.2937 101.653 6.55982 100 1.19548 98.7901C-3.90286 97.64 -7.79897 96.2145 -8.10824 96.1049L47.354 -60.3558ZM-49.406 -28.9319C-48.3517 -30.4699 -47.4656 -31.6477 -46.9932 -32.2664C-46.4659 -32.9569 -46.0273 -33.5077 -45.74 -33.864C-45.1795 -34.5592 -44.7433 -35.0743 -44.5481 -35.3036C-44.1465 -35.7751 -43.8532 -36.105 -43.7386 -36.2337L80.2404 74.1529C80.5027 73.8583 81.1127 73.1704 81.8363 72.3208C82.1925 71.9025 82.791 71.1933 83.4946 70.3206C83.9145 69.7996 85.6046 67.7093 87.5119 64.927L-49.406 -28.9319ZM-43.7386 -36.2337C-35.4549 -45.5374 -18.2174 -60.3157 8.63703 -63.3699C31.8089 -66.0052 48.9149 -58.0921 53.9716 -55.6355L-18.5669 93.6768C-13.257 96.2565 4.04933 104.222 27.3953 101.567C54.4237 98.4929 71.809 83.6226 80.2404 74.1529L-43.7386 -36.2337ZM53.9716 -55.6355C52.6726 -56.2666 51.6217 -56.735 51.0784 -56.9741C50.5066 -57.2256 50.051 -57.4184 49.8977 -57.4832C49.2361 -57.7629 49.9711 -57.452 50.1445 -57.3776C51.1167 -56.9604 52.9084 -56.1683 55.0919 -55.0387C59.5895 -52.7117 64.7529 -49.4745 69.9326 -44.9987L-38.6025 80.6044C-32.4553 85.9163 -26.3997 89.7009 -21.1886 92.397C-18.6484 93.7113 -16.5446 94.6433 -15.3178 95.1698C-15.0172 95.2988 -14.1694 95.6566 -14.7341 95.4179C-14.8389 95.3736 -15.2501 95.1998 -15.7816 94.9659C-16.2847 94.7445 -17.2995 94.2925 -18.5669 93.6768L53.9716 -55.6355ZM69.9329 -44.9984C75.0725 -40.5572 78.5766 -36.3445 80.6281 -33.666C82.8097 -30.8174 84.3851 -28.3337 85.378 -26.6833L-56.8654 58.8901C-55.2544 61.568 -49.3514 71.3161 -38.6028 80.6042L69.9329 -44.9984ZM85.378 -26.6833C89.796 -19.3395 94.6814 -8.59629 96.4848 5.11562C98.3784 19.513 96.3616 33.3643 91.7227 45.4815C87.4064 56.7562 81.5721 64.5879 78.0649 68.8008C76.2439 70.9883 74.6582 72.6603 73.6729 73.6683C72.7321 74.6307 71.9542 75.3749 71.938 75.3906L-43.2037 -44.1853C-43.2516 -44.1392 -44.0613 -43.3641 -45.033 -42.3701C-46.0493 -41.3305 -47.6648 -39.6261 -49.5137 -37.4051C-53.0766 -33.1252 -58.9585 -25.222 -63.3051 -13.8681C-74.2664 14.764 -67.271 41.5935 -56.8654 58.8901L85.378 -26.6833ZM72.0219 75.3097C73.837 73.5569 75.2113 72.0701 75.9617 71.242C76.7526 70.3692 77.3612 69.6605 77.6141 69.365C77.7478 69.2088 78.1682 68.7137 77.8992 69.0303C77.8393 69.1008 77.4422 69.569 76.9125 70.1678L-47.4183 -39.8225C-48.0114 -39.152 -48.4734 -38.608 -48.5986 -38.4607C-48.6516 -38.3983 -48.7518 -38.2801 -48.7052 -38.3351C-48.6996 -38.3417 -48.6184 -38.4375 -48.5094 -38.5649C-48.3214 -38.7845 -47.7768 -39.4195 -47.0481 -40.2237C-46.3598 -40.9833 -45.0457 -42.4068 -43.2876 -44.1044L72.0219 75.3097ZM76.9125 70.1678C80.8999 65.6605 84.1524 61.0143 86.7912 56.4384C87.8738 54.561 88.6473 53.0466 88.9004 52.5496C89.0152 52.3243 89.1435 52.0691 89.0898 52.1756C89.0792 52.1966 88.9712 52.4112 88.8295 52.6871L-58.8291 -23.161C-58.9918 -22.8442 -59.1195 -22.5906 -59.149 -22.5321C-59.2216 -22.3881 -59.1114 -22.6073 -59.0144 -22.7977C-58.7967 -23.2249 -58.0575 -24.6741 -57.0119 -26.4874C-54.4469 -30.9353 -51.2789 -35.4585 -47.4183 -39.8225L76.9125 70.1678ZM88.8295 52.6871C106.661 17.9742 94.284 -12.9699 88.7529 -23.6988L-58.7943 52.3658C-61.1174 47.8595 -65.921 37.6419 -67.4621 23.5655C-69.1682 7.98128 -66.4473 -8.33019 -58.8291 -23.161L88.8295 52.6871ZM88.7529 -23.6988C89.28 -22.6764 89.6729 -21.8609 89.8556 -21.4787C90.07 -21.0302 90.2399 -20.6641 90.3468 -20.4321C90.557 -19.976 90.7155 -19.6204 90.7871 -19.4593C90.9366 -19.1226 91.0406 -18.8818 91.0556 -18.8469C91.1002 -18.7436 91.1057 -18.7298 91.035 -18.8964C90.9695 -19.0504 90.9148 -19.1798 90.8143 -19.4167C90.7442 -19.582 90.6066 -19.9065 90.4741 -20.2154L-62.0769 45.2384C-62.104 45.1752 -62.0992 45.186 -62.013 45.3892C-61.9572 45.5209 -61.8418 45.7933 -61.7463 46.0181C-61.6562 46.2303 -61.499 46.5998 -61.335 46.9793C-61.2602 47.1524 -61.1047 47.5116 -60.9145 47.9397C-60.8226 48.1465 -60.6465 48.5411 -60.4219 49.0286C-60.3078 49.2763 -60.1314 49.6562 -59.9113 50.1165C-59.723 50.5105 -59.3253 51.3358 -58.7943 52.3658L88.7529 -23.6988ZM90.4449 -20.2834C86.3945 -29.7002 75.0379 -51.1786 48.4204 -63.3541C35.8586 -69.1002 24.6988 -70.4336 18.2851 -70.7842C16.7626 -70.8675 15.5071 -70.894 14.6682 -70.9036C13.8775 -70.9126 13.2415 -70.9078 13.2005 -70.9076C12.4001 -70.9029 14.9166 -70.9444 17.6399 -70.8127L9.61747 94.9934C12.3797 95.127 14.9367 95.0851 14.1782 95.0895C14.1581 95.0897 13.5435 95.0944 12.7745 95.0856C11.9572 95.0763 10.7238 95.0503 9.22361 94.9683C2.89919 94.6225 -8.16646 93.3041 -20.6309 87.6026C-47.0538 75.5161 -58.2033 54.2445 -62.0477 45.3063L90.4449 -20.2834ZM17.6015 -70.8145C15.4111 -70.9195 13.6364 -70.9185 13.1429 -70.9185V95.0815C12.9586 95.0815 12.5654 95.0807 12.0507 95.0724C11.5595 95.0645 10.7168 95.0461 9.65586 94.9952L17.6015 -70.8145ZM11.0406 -70.8919C-0.170801 -70.6078 -11.2686 -68.0784 -21.5764 -63.3925L47.1211 87.7255C37.0457 92.3057 26.2002 94.7773 15.2452 95.0549L11.0406 -70.8919ZM-21.5764 -63.3925C-31.8885 -58.7047 -41.2595 -51.9246 -49.0274 -43.3552L73.9626 68.1322C66.3643 76.5144 57.2009 83.1433 47.1211 87.7255L-21.5764 -63.3925ZM-47.882 -44.5933C-45.5515 -47.0616 -53.6781 -39.1893 -59.7561 -28.7701C-66.6375 -16.9736 -71.4191 -2.22232 -71.4191 14.4357H94.5809C94.5809 29.887 90.1266 43.7377 83.6305 54.8737C77.9378 64.6325 70.2544 72.0845 72.8171 69.3703L-47.882 -44.5933ZM-71.4191 14.4357C-71.4191 34.3453 -64.4666 48.8991 -61.4569 54.6392C-59.5537 58.2688 -57.6928 61.2031 -56.2496 63.327C-55.5048 64.4231 -54.8255 65.37 -54.2535 66.1453C-53.6873 66.9127 -53.1856 67.5631 -53.2643 67.4603L78.4949 -33.5125C78.3847 -33.6562 78.8307 -33.0781 79.3231 -32.4106C79.8215 -31.7352 80.4091 -30.9158 81.051 -29.9711C82.2886 -28.1499 83.8988 -25.6136 85.559 -22.4473C88.083 -17.6337 94.5809 -4.26718 94.5809 14.4357H-71.4191ZM-53.2643 67.4603C-54.2685 66.1499 -55.2799 64.7215 -54.7682 65.4343C-54.7417 65.4712 -54.5565 65.7295 -54.3242 66.0481C-53.8364 66.7168 -53.1717 67.61 -52.3575 68.6495C-50.7683 70.6787 -48.5663 73.3223 -45.7557 76.2251C-40.853 81.2886 -30.7013 90.7178 -15.0913 97.2484L48.9755 -55.8903C62.0447 -50.4227 70.0956 -42.7642 73.5015 -39.2466C75.5637 -37.1168 77.1682 -35.1899 78.3314 -33.7047C78.9326 -32.9371 79.4271 -32.2727 79.7901 -31.775C79.9601 -31.542 80.0943 -31.3548 80.0814 -31.3727C80.0798 -31.3749 80.0724 -31.3852 80.0643 -31.3965C80.0558 -31.4084 80.0418 -31.4279 80.0248 -31.4515C79.9952 -31.4926 79.9299 -31.5833 79.8477 -31.6968C79.8195 -31.7357 79.241 -32.5389 78.4949 -33.5125L-53.2643 67.4603ZM-14.9931 97.2894C-11.8935 98.5815 -8.73382 99.7114 -5.52719 100.676L42.2998 -58.2847C44.5257 -57.615 46.7213 -56.83 48.8773 -55.9313L-14.9931 97.2894ZM-6.02273 100.525C10.6434 105.653 24.7238 104.473 31.8913 103.434L8.0715 -60.848C14.3665 -61.7608 27.3425 -62.8887 42.7953 -58.134L-6.02273 100.525ZM31.8523 103.44C47.2205 101.219 58.5587 95.2372 64.7123 91.4176C68.5058 89.0629 89.4792 76.3244 99.6093 48.7237L-56.2263 -8.47143C-50.5891 -23.8308 -41.7978 -33.6863 -36.9766 -38.4571C-31.6375 -43.7403 -26.5263 -47.3282 -22.8321 -49.6213C-18.9879 -52.0074 -14.9944 -54.0325 -10.889 -55.7049C-7.44095 -57.1096 -0.759602 -59.5719 8.11057 -60.8537L31.8523 103.44ZM99.6093 48.7237C102.249 41.5327 103.879 34.1311 104.538 26.7554C104.86 23.1612 105.07 18.2552 104.608 12.4807C104.516 11.3317 103.743 -6.39666 92.4384 -24.6838L-48.76 62.6031C-55.5932 51.5495 -58.1134 41.5794 -59.0086 37.7059C-60.1638 32.7079 -60.6397 28.5159 -60.8629 25.728C-61.3141 20.0923 -61.1052 15.364 -60.8025 11.977C-60.1803 5.01565 -58.6551 -1.85375 -56.2263 -8.47143L99.6093 48.7237ZM92.4384 -24.6838C85.6664 -35.6384 77.7621 -42.7542 72.4036 -46.8794C67.1972 -50.8874 62.653 -53.3859 60.6669 -54.4431C58.5943 -55.5463 56.8581 -56.3498 56.786 -56.3836C56.1897 -56.6635 56.9612 -56.303 57.4645 -56.0598L-14.7577 93.4058C-14.1277 93.7102 -13.2399 94.1244 -13.7312 93.8938C-13.8278 93.8485 -14.2401 93.6551 -14.7725 93.3956C-15.3076 93.1347 -16.2163 92.6846 -17.3315 92.091C-19.2358 91.0774 -23.71 88.6212 -28.859 84.6573C-34.1601 80.5763 -42.0196 73.5066 -48.76 62.6031L92.4384 -24.6838Z" fill="#0F4DC4" mask="url(#path-2-inside-1_6597_9045)"/>
</svg>
